<mxfile host="app.diagrams.net" modified="2024-03-16T20:25:02.472Z" agent="Mozilla/5.0 (Windows NT 10.0; Win64; x64) AppleWebKit/537.36 (KHTML, like Gecko) Chrome/122.0.0.0 Safari/537.36 Edg/122.0.0.0" etag="obDznIp4rv1sGY723tWH" version="24.0.7" type="device">
  <diagram name="Page-1" id="2bLrb9ZtK15jGcfYUEQE">
    <mxGraphModel dx="1254" dy="687" grid="1" gridSize="10" guides="1" tooltips="1" connect="1" arrows="1" fold="1" page="1" pageScale="1" pageWidth="850" pageHeight="1100" math="0" shadow="0">
      <root>
        <mxCell id="0" />
        <mxCell id="1" parent="0" />
        <mxCell id="iOIi8poEuBog3A6uobi9-1" value="&lt;font style=&quot;font-size: 19px;&quot;&gt;&lt;b&gt;Low Voltage System&lt;/b&gt;&lt;/font&gt;" style="text;html=1;align=center;verticalAlign=middle;whiteSpace=wrap;rounded=0;" vertex="1" parent="1">
          <mxGeometry x="260" y="150" width="260" height="30" as="geometry" />
        </mxCell>
        <mxCell id="iOIi8poEuBog3A6uobi9-5" value="" style="edgeStyle=orthogonalEdgeStyle;rounded=0;orthogonalLoop=1;jettySize=auto;html=1;" edge="1" parent="1" source="iOIi8poEuBog3A6uobi9-2" target="iOIi8poEuBog3A6uobi9-4">
          <mxGeometry relative="1" as="geometry" />
        </mxCell>
        <mxCell id="iOIi8poEuBog3A6uobi9-2" value="Battery" style="rounded=0;whiteSpace=wrap;html=1;" vertex="1" parent="1">
          <mxGeometry x="50" y="320" width="120" height="60" as="geometry" />
        </mxCell>
        <mxCell id="iOIi8poEuBog3A6uobi9-12" value="" style="edgeStyle=orthogonalEdgeStyle;rounded=0;orthogonalLoop=1;jettySize=auto;html=1;" edge="1" parent="1" source="iOIi8poEuBog3A6uobi9-3" target="iOIi8poEuBog3A6uobi9-11">
          <mxGeometry relative="1" as="geometry" />
        </mxCell>
        <mxCell id="iOIi8poEuBog3A6uobi9-3" value="NO Relays" style="rounded=0;whiteSpace=wrap;html=1;" vertex="1" parent="1">
          <mxGeometry x="370" y="320" width="120" height="60" as="geometry" />
        </mxCell>
        <mxCell id="iOIi8poEuBog3A6uobi9-6" value="" style="edgeStyle=orthogonalEdgeStyle;rounded=0;orthogonalLoop=1;jettySize=auto;html=1;" edge="1" parent="1" source="iOIi8poEuBog3A6uobi9-4" target="iOIi8poEuBog3A6uobi9-3">
          <mxGeometry relative="1" as="geometry" />
        </mxCell>
        <mxCell id="iOIi8poEuBog3A6uobi9-8" style="edgeStyle=orthogonalEdgeStyle;rounded=0;orthogonalLoop=1;jettySize=auto;html=1;exitX=1;exitY=0.25;exitDx=0;exitDy=0;entryX=0;entryY=0.5;entryDx=0;entryDy=0;" edge="1" parent="1" source="iOIi8poEuBog3A6uobi9-4" target="iOIi8poEuBog3A6uobi9-7">
          <mxGeometry relative="1" as="geometry" />
        </mxCell>
        <mxCell id="iOIi8poEuBog3A6uobi9-4" value="BMS" style="rounded=0;whiteSpace=wrap;html=1;" vertex="1" parent="1">
          <mxGeometry x="210" y="320" width="120" height="60" as="geometry" />
        </mxCell>
        <mxCell id="iOIi8poEuBog3A6uobi9-9" style="edgeStyle=orthogonalEdgeStyle;rounded=0;orthogonalLoop=1;jettySize=auto;html=1;entryX=0.5;entryY=0;entryDx=0;entryDy=0;" edge="1" parent="1" source="iOIi8poEuBog3A6uobi9-7" target="iOIi8poEuBog3A6uobi9-3">
          <mxGeometry relative="1" as="geometry" />
        </mxCell>
        <mxCell id="iOIi8poEuBog3A6uobi9-7" value="Switch" style="rounded=0;whiteSpace=wrap;html=1;" vertex="1" parent="1">
          <mxGeometry x="365" y="210" width="120" height="60" as="geometry" />
        </mxCell>
        <mxCell id="iOIi8poEuBog3A6uobi9-14" style="edgeStyle=orthogonalEdgeStyle;rounded=0;orthogonalLoop=1;jettySize=auto;html=1;entryX=0.5;entryY=0;entryDx=0;entryDy=0;" edge="1" parent="1" source="iOIi8poEuBog3A6uobi9-11" target="iOIi8poEuBog3A6uobi9-13">
          <mxGeometry relative="1" as="geometry" />
        </mxCell>
        <mxCell id="iOIi8poEuBog3A6uobi9-16" value="" style="edgeStyle=orthogonalEdgeStyle;rounded=0;orthogonalLoop=1;jettySize=auto;html=1;" edge="1" parent="1" source="iOIi8poEuBog3A6uobi9-11" target="iOIi8poEuBog3A6uobi9-15">
          <mxGeometry relative="1" as="geometry" />
        </mxCell>
        <mxCell id="iOIi8poEuBog3A6uobi9-18" value="" style="edgeStyle=orthogonalEdgeStyle;rounded=0;orthogonalLoop=1;jettySize=auto;html=1;" edge="1" parent="1" source="iOIi8poEuBog3A6uobi9-11" target="iOIi8poEuBog3A6uobi9-17">
          <mxGeometry relative="1" as="geometry" />
        </mxCell>
        <mxCell id="iOIi8poEuBog3A6uobi9-20" style="edgeStyle=orthogonalEdgeStyle;rounded=0;orthogonalLoop=1;jettySize=auto;html=1;entryX=0.5;entryY=0;entryDx=0;entryDy=0;" edge="1" parent="1" source="iOIi8poEuBog3A6uobi9-11" target="iOIi8poEuBog3A6uobi9-19">
          <mxGeometry relative="1" as="geometry" />
        </mxCell>
        <mxCell id="iOIi8poEuBog3A6uobi9-11" value="Power Distribution Board" style="rounded=0;whiteSpace=wrap;html=1;" vertex="1" parent="1">
          <mxGeometry x="370" y="410" width="120" height="60" as="geometry" />
        </mxCell>
        <mxCell id="iOIi8poEuBog3A6uobi9-13" value="Cooling System" style="ellipse;whiteSpace=wrap;html=1;aspect=fixed;" vertex="1" parent="1">
          <mxGeometry x="300" y="540" width="80" height="80" as="geometry" />
        </mxCell>
        <mxCell id="iOIi8poEuBog3A6uobi9-15" value="SSC" style="ellipse;whiteSpace=wrap;html=1;aspect=fixed;" vertex="1" parent="1">
          <mxGeometry x="180" y="410" width="80" height="80" as="geometry" />
        </mxCell>
        <mxCell id="iOIi8poEuBog3A6uobi9-17" value="Auxiliary Power for power electronics" style="ellipse;whiteSpace=wrap;html=1;aspect=fixed;" vertex="1" parent="1">
          <mxGeometry x="560" y="410" width="80" height="80" as="geometry" />
        </mxCell>
        <mxCell id="iOIi8poEuBog3A6uobi9-19" value="Auxiliary power for HV BMS" style="ellipse;whiteSpace=wrap;html=1;aspect=fixed;" vertex="1" parent="1">
          <mxGeometry x="470" y="540" width="80" height="80" as="geometry" />
        </mxCell>
      </root>
    </mxGraphModel>
  </diagram>
</mxfile>
